<svg version="1.1" id="Layer_1" xmlns="http://www.w3.org/2000/svg" xmlns:xlink="http://www.w3.org/1999/xlink" x="0px" y="0px"
	 width="100%" viewBox="0 0 2400 2400" enable-background="new 0 0 2400 2400" xml:space="preserve">
<path fill="#000000" opacity="1.000000" stroke="none" 
	d="
M1110.000000,2402.000000 
	C740.000000,2402.000000 371.000000,2402.000000 2.000000,2402.000000 
	C2.000000,1602.000000 2.000000,802.000000 2.000000,2.000000 
	C802.000000,2.000000 1602.000000,2.000000 2402.000000,2.000000 
	C2402.000000,802.000000 2402.000000,1602.000000 2402.000000,2402.000000 
	C1971.666626,2402.000000 1541.333374,2402.000000 1110.000000,2402.000000 
M1268.734741,780.390747 
	C1271.468384,782.563782 1274.201904,784.736816 1277.229858,787.143799 
	C1146.139648,939.512146 1015.665466,1091.164673 884.027710,1244.169556 
	C1228.299683,1244.169556 1570.574463,1244.169556 1913.302490,1244.169556 
	C1923.793945,1200.719727 1926.871460,1157.137939 1921.349854,1113.110107 
	C1914.054077,1054.935059 1893.281006,1001.749756 1860.689941,953.108521 
	C1823.193359,897.146118 1774.723999,852.486450 1718.495117,816.022888 
	C1630.753418,759.123718 1533.916870,726.612854 1431.277710,709.970459 
	C1376.211182,701.041687 1320.673462,698.424072 1264.993408,698.127686 
	C1231.005249,697.946716 1197.015015,698.161133 1163.025635,698.228882 
	C1161.274414,698.232361 1159.523804,698.527039 1155.752075,698.869812 
	C1194.163208,726.616638 1230.834717,753.106689 1268.734741,780.390747 
M848.807251,1643.697144 
	C890.922791,1629.994019 932.315491,1614.417603 972.555603,1595.865601 
	C1060.039307,1555.532959 1140.668701,1504.663452 1209.474854,1436.843994 
	C1235.963501,1410.735107 1259.049316,1381.173584 1283.635864,1353.141602 
	C1283.881348,1352.861816 1283.452515,1351.990601 1283.207642,1350.712402 
	C1281.430298,1350.712402 1279.520020,1350.712402 1277.609619,1350.712402 
	C1118.619507,1350.712402 959.629333,1350.734009 800.639221,1350.620483 
	C795.230164,1350.616577 791.472473,1352.031616 787.787659,1356.277588 
	C688.182800,1471.055786 588.425049,1585.701294 488.729614,1700.400879 
	C487.387970,1701.944336 486.514038,1703.894287 485.091644,1706.186523 
	C489.155731,1706.186523 492.137665,1706.329712 495.102539,1706.165283 
	C550.354309,1703.101440 605.278015,1697.077759 659.907776,1688.225342 
	C723.408936,1677.935791 785.910828,1663.482788 848.807251,1643.697144 
M1375.906860,1410.875610 
	C1291.761475,1508.769531 1207.616211,1606.663330 1123.339355,1704.710083 
	C1124.845093,1705.604858 1125.339111,1706.136353 1125.866821,1706.171997 
	C1128.523315,1706.352051 1131.187744,1706.436401 1133.850708,1706.494141 
	C1178.537842,1707.464966 1223.067871,1705.515869 1267.512207,1700.488525 
	C1334.204956,1692.944702 1399.451050,1678.928467 1463.177246,1657.947021 
	C1557.228271,1626.981689 1644.469116,1582.941772 1722.423340,1521.433716 
	C1779.417236,1476.463745 1828.249634,1424.102295 1865.360352,1361.334473 
	C1867.146484,1358.313599 1868.658813,1355.130981 1870.990479,1350.712769 
	C1866.942139,1350.712769 1864.387573,1350.712769 1861.833008,1350.712769 
	C1719.890015,1350.712769 1577.946899,1350.763306 1436.004272,1350.548828 
	C1429.567261,1350.539062 1425.609009,1352.727539 1421.678223,1357.416748 
	C1406.911621,1375.031860 1391.803101,1392.360474 1375.906860,1410.875610 
z"/>
<path fill="#FFFFFF" opacity="1.000000" stroke="none" 
	d="
M1268.120361,779.993774 
	C1230.834717,753.106689 1194.163208,726.616638 1155.752075,698.869812 
	C1159.523804,698.527039 1161.274414,698.232361 1163.025635,698.228882 
	C1197.015015,698.161133 1231.005249,697.946716 1264.993408,698.127686 
	C1320.673462,698.424072 1376.211182,701.041687 1431.277710,709.970459 
	C1533.916870,726.612854 1630.753418,759.123718 1718.495117,816.022888 
	C1774.723999,852.486450 1823.193359,897.146118 1860.689941,953.108521 
	C1893.281006,1001.749756 1914.054077,1054.935059 1921.349854,1113.110107 
	C1926.871460,1157.137939 1923.793945,1200.719727 1913.302490,1244.169556 
	C1570.574463,1244.169556 1228.299683,1244.169556 884.027710,1244.169556 
	C1015.665466,1091.164673 1146.139648,939.512146 1277.229858,787.143799 
	C1274.201904,784.736816 1271.468384,782.563782 1268.120361,779.993774 
z"/>
<path fill="#FEFEFE" opacity="1.000000" stroke="none" 
	d="
M848.029785,1643.882812 
	C785.910828,1663.482788 723.408936,1677.935791 659.907776,1688.225342 
	C605.278015,1697.077759 550.354309,1703.101440 495.102539,1706.165283 
	C492.137665,1706.329712 489.155731,1706.186523 485.091644,1706.186523 
	C486.514038,1703.894287 487.387970,1701.944336 488.729614,1700.400879 
	C588.425049,1585.701294 688.182800,1471.055786 787.787659,1356.277588 
	C791.472473,1352.031616 795.230164,1350.616577 800.639221,1350.620483 
	C959.629333,1350.734009 1118.619507,1350.712402 1277.609619,1350.712402 
	C1279.520020,1350.712402 1281.430298,1350.712402 1283.207642,1350.712402 
	C1283.452515,1351.990601 1283.881348,1352.861816 1283.635864,1353.141602 
	C1259.049316,1381.173584 1235.963501,1410.735107 1209.474854,1436.843994 
	C1140.668701,1504.663452 1060.039307,1555.532959 972.555603,1595.865601 
	C932.315491,1614.417603 890.922791,1629.994019 848.029785,1643.882812 
z"/>
<path fill="#FEFEFE" opacity="1.000000" stroke="none" 
	d="
M1376.364746,1410.335938 
	C1391.803101,1392.360474 1406.911621,1375.031860 1421.678223,1357.416748 
	C1425.609009,1352.727539 1429.567261,1350.539062 1436.004272,1350.548828 
	C1577.946899,1350.763306 1719.890015,1350.712769 1861.833008,1350.712769 
	C1864.387573,1350.712769 1866.942139,1350.712769 1870.990479,1350.712769 
	C1868.658813,1355.130981 1867.146484,1358.313599 1865.360352,1361.334473 
	C1828.249634,1424.102295 1779.417236,1476.463745 1722.423340,1521.433716 
	C1644.469116,1582.941772 1557.228271,1626.981689 1463.177246,1657.947021 
	C1399.451050,1678.928467 1334.204956,1692.944702 1267.512207,1700.488525 
	C1223.067871,1705.515869 1178.537842,1707.464966 1133.850708,1706.494141 
	C1131.187744,1706.436401 1128.523315,1706.352051 1125.866821,1706.171997 
	C1125.339111,1706.136353 1124.845093,1705.604858 1123.339355,1704.710083 
	C1207.616211,1606.663330 1291.761475,1508.769531 1376.364746,1410.335938 
z"/>
</svg>